<?xml version="1.0" standalone="no"?>
<!DOCTYPE svg PUBLIC "-//W3C//DTD SVG 20010904//EN"
 "http://www.w3.org/TR/2001/REC-SVG-20010904/DTD/svg10.dtd">
<svg version="1.0" xmlns="http://www.w3.org/2000/svg"
 width="700.000000pt" height="700.000000pt" viewBox="0 0 700.000000 700.000000"
 preserveAspectRatio="xMidYMid meet">
<metadata>
Created by potrace 1.11, written by Peter Selinger 2001-2013
</metadata>
<g transform="translate(0.000000,700.000000) scale(0.100000,-0.100000)"
fill="#000000" stroke="none">
<path d="M1847 5504 c-1 -1 -49 -5 -107 -8 -58 -3 -114 -8 -125 -10 -11 -2
-42 -7 -70 -11 -27 -5 -52 -9 -55 -10 -3 0 -23 -4 -45 -8 -91 -17 -276 -84
-380 -137 -386 -195 -659 -526 -809 -980 -25 -74 -47 -146 -50 -160 -2 -14
-10 -47 -16 -75 -13 -54 -16 -70 -25 -130 -14 -96 -26 -184 -30 -235 -6 -73
-7 -432 0 -495 20 -209 31 -274 71 -437 151 -616 511 -1041 1040 -1228 81 -29
181 -56 244 -66 14 -2 34 -6 46 -9 21 -5 77 -11 174 -20 156 -15 412 0 565 32
11 2 31 6 45 9 423 85 788 340 992 694 62 107 140 325 162 450 3 19 8 46 11
60 3 14 8 60 11 103 l7 77 -387 0 c-361 0 -386 -1 -386 -17 -2 -90 -59 -284
-107 -361 -49 -81 -73 -112 -124 -163 -77 -78 -149 -124 -257 -165 -120 -46
-205 -59 -377 -57 -507 4 -838 361 -929 1003 -3 19 -9 87 -13 150 -44 720 168
1243 582 1440 128 61 228 83 380 84 208 2 310 -20 456 -96 189 -97 311 -265
374 -516 l19 -72 375 2 c327 3 376 5 376 18 -6 169 -63 398 -135 543 -72 143
-129 218 -271 358 -161 158 -351 272 -582 347 -108 35 -169 50 -322 77 -16 3
-79 8 -140 11 -60 3 -127 7 -148 8 -20 1 -38 1 -40 0z"/>
<path d="M3750 3520 l0 -1920 395 0 395 0 0 38 c0 20 0 413 0 872 l0 835 760
0 c418 0 760 -2 761 -5 0 -3 2 -394 2 -870 l2 -865 393 -3 c310 -2 392 0 393
10 1 7 2 871 3 1921 l1 1907 -397 0 -398 0 0 -52 c-1 -29 -2 -352 -3 -718 l-2
-665 -755 0 -755 0 -3 718 -2 717 -395 0 -395 0 0 -1920z"/>
</g>
</svg>
