<?xml version="1.0" standalone="no"?>
<!DOCTYPE svg PUBLIC "-//W3C//DTD SVG 20010904//EN"
 "http://www.w3.org/TR/2001/REC-SVG-20010904/DTD/svg10.dtd">
<svg version="1.0" xmlns="http://www.w3.org/2000/svg"
 width="700.000000pt" height="700.000000pt" viewBox="0 0 700.000000 700.000000"
 preserveAspectRatio="xMidYMid meet">
<metadata>
Created by potrace 1.11, written by Peter Selinger 2001-2013
</metadata>
<g transform="translate(0.000000,700.000000) scale(0.100000,-0.100000)"
fill="#000000" stroke="none">
<path d="M1089 6043 c-13 -16 -12 -17 4 -4 16 13 21 21 13 21 -2 0 -10 -8 -17
-17z"/>
<path d="M1830 5297 c-3 -3 -36 -8 -75 -11 -38 -4 -86 -11 -105 -16 -19 -5
-51 -12 -70 -15 -63 -11 -243 -76 -325 -118 -321 -164 -560 -441 -698 -807
-32 -83 -71 -211 -81 -267 -47 -242 -55 -325 -56 -558 0 -198 9 -302 40 -469
102 -543 370 -937 785 -1151 146 -75 320 -128 506 -153 71 -9 389 -9 459 1 30
4 71 10 90 12 69 9 234 56 324 91 171 69 299 150 424 269 218 206 355 496 387
820 12 117 12 144 1 147 -9 3 -746 2 -768 -1 -5 -1 -8 -13 -8 -28 0 -49 -32
-203 -42 -203 -5 0 -6 -5 -3 -10 4 -6 -11 -45 -32 -88 -52 -106 -151 -206
-253 -256 -41 -20 -85 -38 -98 -41 -13 -2 -31 -6 -40 -9 -110 -33 -333 -24
-450 18 -174 63 -310 194 -401 387 -17 37 -31 73 -31 81 0 8 -3 18 -7 22 -4 3
-8 12 -9 19 -2 7 -10 37 -18 67 -15 53 -28 119 -42 205 -17 112 -11 452 10
575 2 14 7 43 11 65 24 141 114 358 184 445 152 189 319 271 561 275 205 3
361 -51 479 -167 86 -84 152 -219 177 -361 3 -21 12 -43 18 -50 9 -9 106 -12
382 -10 203 0 372 1 376 2 4 1 6 7 3 14 -2 6 -6 39 -9 72 -7 84 -24 194 -35
233 -5 17 -8 32 -6 32 7 0 -54 170 -80 222 -113 225 -333 438 -577 558 -116
57 -309 120 -413 135 -23 3 -52 8 -65 11 -30 7 -414 17 -420 11z"/>
<path d="M6516 5252 c-3 -2 -169 -4 -370 -4 l-366 -1 0 -618 0 -619 -590 0
-590 0 0 619 0 618 -400 0 -400 1 -1 -27 c0 -34 0 -3361 0 -3381 1 -14 49 -16
401 -16 l400 1 0 747 c0 412 3 748 8 749 10 1 1097 1 1142 0 l35 -1 0 -737
c-1 -406 1 -743 2 -748 2 -7 134 -11 401 -10 l397 0 3 1711 2 1712 -35 4 c-20
2 -37 2 -39 0z"/>
<path d="M196 2327 c3 -10 9 -15 12 -12 3 3 0 11 -7 18 -10 9 -11 8 -5 -6z"/>
<path d="M1867 399 c7 -7 15 -10 18 -7 3 3 -2 9 -12 12 -14 6 -15 5 -6 -5z"/>
</g>
</svg>
