<?xml version="1.0" standalone="no"?>
<!DOCTYPE svg PUBLIC "-//W3C//DTD SVG 20010904//EN"
 "http://www.w3.org/TR/2001/REC-SVG-20010904/DTD/svg10.dtd">
<svg version="1.0" xmlns="http://www.w3.org/2000/svg"
 width="94.000000pt" height="94.000000pt" viewBox="0 0 94.000000 94.000000"
 preserveAspectRatio="xMidYMid meet">
<metadata>
Created by potrace 1.11, written by Peter Selinger 2001-2013
</metadata>
<g transform="translate(0.000000,94.000000) scale(0.100000,-0.100000)"
fill="#000000" stroke="none">
<path d="M157 919 c-38 -29 -63 -79 -46 -90 9 -5 25 5 50 32 46 50 69 50 102
0 41 -61 74 -149 153 -399 3 -10 -55 -85 -87 -112 -34 -29 -269 -305 -266
-313 10 -30 37 -12 106 68 19 22 55 63 80 91 25 28 75 83 110 122 35 40 67 72
71 72 4 0 13 -21 20 -48 21 -83 81 -236 107 -271 41 -54 140 -81 200 -56 35
15 73 60 73 86 0 28 -23 23 -48 -11 -70 -95 -121 -35 -216 254 -25 77 -46 142
-46 146 0 7 30 41 228 263 113 126 131 151 120 164 -13 16 -42 -11 -178 -163
-25 -28 -76 -85 -115 -128 l-69 -77 -41 123 c-74 221 -102 255 -216 264 -55 4
-68 1 -92 -17z"/>
</g>
</svg>
